<svg width="25" height="27" viewBox="0 0 25 27" fill="none" xmlns="http://www.w3.org/2000/svg">
<path d="M17.7632 20.2733V22.9049C17.7632 23.0803 17.8289 23.2338 17.9605 23.3654C18.0921 23.497 18.2456 23.5628 18.4211 23.5628C18.5965 23.5628 18.75 23.497 18.8816 23.3654C19.0132 23.2338 19.0789 23.0803 19.0789 22.9049V20.2733H21.7105C21.886 20.2733 22.0395 20.2075 22.1711 20.0759C22.3026 19.9443 22.3684 19.7908 22.3684 19.6154C22.3684 19.4399 22.3026 19.2864 22.1711 19.1549C22.0395 19.0233 21.886 18.9575 21.7105 18.9575H19.0789V16.3259C19.0789 16.1505 19.0132 15.997 18.8816 15.8654C18.75 15.7338 18.5965 15.668 18.4211 15.668C18.2456 15.668 18.0921 15.7338 17.9605 15.8654C17.8289 15.997 17.7632 16.1505 17.7632 16.3259V18.9575H15.1316C14.9561 18.9575 14.8026 19.0233 14.6711 19.1549C14.5395 19.2864 14.4737 19.4399 14.4737 19.6154C14.4737 19.7908 14.5395 19.9443 14.6711 20.0759C14.8026 20.2075 14.9561 20.2733 15.1316 20.2733H17.7632ZM18.4211 26.1943C16.6009 26.1943 15.0496 25.5531 13.7671 24.2707C12.4838 22.9873 11.8421 21.4356 11.8421 19.6154C11.8421 17.7952 12.4838 16.2435 13.7671 14.9601C15.0496 13.6777 16.6009 13.0364 18.4211 13.0364C20.2412 13.0364 21.793 13.6777 23.0763 14.9601C24.3588 16.2435 25 17.7952 25 19.6154C25 21.4356 24.3588 22.9873 23.0763 24.2707C21.793 25.5531 20.2412 26.1943 18.4211 26.1943ZM2.63158 23.5628C1.90789 23.5628 1.2886 23.3053 0.773684 22.7904C0.257895 22.2746 0 21.6549 0 20.9312V9.08907C0 8.6724 0.0934208 8.27767 0.280263 7.90486C0.466228 7.53205 0.723684 7.22504 1.05263 6.98381L8.94737 1.06275C9.4079 0.711877 9.93421 0.536438 10.5263 0.536438C11.1184 0.536438 11.6447 0.711877 12.1053 1.06275L20 6.98381C20.3289 7.22504 20.5868 7.53205 20.7737 7.90486C20.9596 8.27767 21.0526 8.6724 21.0526 9.08907V10.7996C20.636 10.668 20.2083 10.5693 19.7697 10.5035C19.3311 10.4378 18.8816 10.4049 18.4211 10.4049V9.08907L10.5263 3.16802L2.63158 9.08907V20.9312H9.30921C9.375 21.3917 9.47368 21.8413 9.60526 22.2799C9.73684 22.7185 9.90132 23.1461 10.0987 23.5628H2.63158Z" fill="#828282"/>
</svg>
