<svg width="15" height="13" viewBox="0 0 15 13" fill="none" xmlns="http://www.w3.org/2000/svg">
<path d="M1.12501 1.57812C1.24805 1.3638 1.42561 1.18587 1.63967 1.06238C1.85372 0.938886 2.09664 0.874235 2.34376 0.874991L12.6563 0.874991C12.9034 0.874067 13.1464 0.938555 13.3605 1.06191C13.5746 1.18526 13.7523 1.36308 13.8755 1.57732C13.9987 1.79155 14.063 2.03457 14.0619 2.2817C14.0608 2.52882 13.9943 2.77125 13.8692 2.98437L8.71876 11.8906C8.59546 12.1048 8.41788 12.2827 8.20392 12.4065C7.98995 12.5302 7.74716 12.5953 7.50001 12.5953C7.25286 12.5953 7.01007 12.5302 6.7961 12.4065C6.58214 12.2827 6.40456 12.1048 6.28126 11.8906L1.13087 2.98437C1.00481 2.77171 0.937802 2.52925 0.936772 2.28204C0.935742 2.03483 1.00072 1.79182 1.12501 1.57812Z" fill="black"/>
</svg>
