<svg width="25" height="26" viewBox="0 0 25 26" fill="none" xmlns="http://www.w3.org/2000/svg">
<path d="M16.625 18.9114L18.375 17.1614L13.75 12.5364V6.78644H11.25V13.5364L16.625 18.9114ZM12.5 25.5364C10.7708 25.5364 9.14583 25.2081 7.625 24.5514C6.10417 23.8956 4.78125 23.0052 3.65625 21.8802C2.53125 20.7552 1.64083 19.4323 0.985 17.9114C0.328333 16.3906 0 14.7656 0 13.0364C0 11.3073 0.328333 9.68227 0.985 8.16144C1.64083 6.6406 2.53125 5.31769 3.65625 4.19269C4.78125 3.06769 6.10417 2.17685 7.625 1.52019C9.14583 0.864355 10.7708 0.536438 12.5 0.536438C14.2292 0.536438 15.8542 0.864355 17.375 1.52019C18.8958 2.17685 20.2188 3.06769 21.3438 4.19269C22.4688 5.31769 23.3592 6.6406 24.015 8.16144C24.6717 9.68227 25 11.3073 25 13.0364C25 14.7656 24.6717 16.3906 24.015 17.9114C23.3592 19.4323 22.4688 20.7552 21.3438 21.8802C20.2188 23.0052 18.8958 23.8956 17.375 24.5514C15.8542 25.2081 14.2292 25.5364 12.5 25.5364ZM12.5 23.0364C15.2708 23.0364 17.6304 22.0627 19.5788 20.1152C21.5263 18.1669 22.5 15.8073 22.5 13.0364C22.5 10.2656 21.5263 7.90602 19.5788 5.95769C17.6304 4.01019 15.2708 3.03644 12.5 3.03644C9.72917 3.03644 7.37 4.01019 5.4225 5.95769C3.47417 7.90602 2.5 10.2656 2.5 13.0364C2.5 15.8073 3.47417 18.1669 5.4225 20.1152C7.37 22.0627 9.72917 23.0364 12.5 23.0364Z" fill="#828282"/>
</svg>
