<svg width="25" height="25" viewBox="0 0 25 25" fill="none" xmlns="http://www.w3.org/2000/svg">
<path d="M22.7157 14.2123C22.9477 14.2123 23.1702 14.3044 23.3343 14.4685C23.4983 14.6325 23.5905 14.855 23.5905 15.087V22.4275C23.6242 23.4422 23.5018 24.1083 23.0481 24.5269C22.6257 24.9155 22.0134 25.0268 21.2199 24.9843H3.92846C3.12369 24.9443 2.49886 24.6181 2.20894 23.9596C2.0165 23.5259 1.92652 23.0136 1.92652 22.425V15.0858C1.92652 14.8538 2.01868 14.6313 2.18273 14.4672C2.34678 14.3032 2.56928 14.211 2.80128 14.211C3.03328 14.211 3.25578 14.3032 3.41982 14.4672C3.58387 14.6313 3.67603 14.8538 3.67603 15.0858V22.425C3.67603 22.7149 3.70853 22.9498 3.76351 23.1273L3.8085 23.2498L3.80475 23.2373C3.806 23.221 3.84224 23.2273 3.9697 23.2348H21.2649C21.571 23.2523 21.766 23.2348 21.8347 23.2335L21.8397 23.2323C21.8235 23.166 21.8547 22.8949 21.8397 22.455V15.0858C21.8397 14.9708 21.8624 14.857 21.9064 14.7507C21.9505 14.6445 22.015 14.548 22.0964 14.4668C22.1777 14.3856 22.2743 14.3211 22.3806 14.2773C22.4869 14.2334 22.6007 14.2109 22.7157 14.211V14.2123ZM13.0384 0C13.3683 0 13.6632 0.129964 13.9407 0.371146L24.7189 10.5421C24.8039 10.6206 24.8725 10.7152 24.9206 10.8205C24.9688 10.9257 24.9956 11.0394 24.9995 11.1551C25.0034 11.2708 24.9843 11.3861 24.9433 11.4943C24.9023 11.6025 24.8403 11.7016 24.7607 11.7856C24.6812 11.8697 24.5858 11.9372 24.48 11.9841C24.3742 12.0311 24.2602 12.0565 24.1444 12.0591C24.0287 12.0616 23.9137 12.0412 23.8059 11.9989C23.6982 11.9567 23.5999 11.8935 23.5167 11.813L12.9984 1.88572L1.44666 11.8392C1.271 11.9908 1.0423 12.0665 0.810878 12.0495C0.579453 12.0325 0.364255 11.9243 0.212627 11.7486C0.0609983 11.5729 -0.0146403 11.3442 0.00235042 11.1128C0.0193412 10.8814 0.127569 10.6662 0.303226 10.5146L12.1074 0.346153L12.2149 0.266176C12.4823 0.0987224 12.7498 0.00124965 13.0397 0.00124965L13.0384 0Z" fill="white"/>
</svg>
