<svg width="22" height="20" viewBox="0 0 22 20" fill="none" xmlns="http://www.w3.org/2000/svg">
<path d="M0 9.90013L5.49944 14.2997V11H15.3984V8.80025H5.49944V5.50058L0 9.90013Z" fill="white"/>
<path d="M12.0999 3.77934e-05C10.7993 -0.00356841 9.51095 0.250934 8.30942 0.748802C7.10789 1.24667 6.01709 1.97801 5.10022 2.90044L6.65546 4.45569C8.10951 3.00163 10.0431 2.19982 12.0999 2.19982C14.1567 2.19982 16.0903 3.00163 17.5444 4.45569C18.9984 5.90974 19.8002 7.84334 19.8002 9.90014C19.8002 11.9569 18.9984 13.8905 17.5444 15.3446C16.0903 16.7986 14.1567 17.6005 12.0999 17.6005C10.0431 17.6005 8.10951 16.7986 6.65546 15.3446L5.10022 16.8998C6.96893 18.7696 9.45468 19.8002 12.0999 19.8002C14.7451 19.8002 17.2309 18.7696 19.0996 16.8998C20.9694 15.0311 22 12.5454 22 9.90014C22 7.2549 20.9694 4.76916 19.0996 2.90044C18.1827 1.97801 17.0919 1.24667 15.8904 0.748802C14.6889 0.250934 13.4005 -0.00356841 12.0999 3.77934e-05Z" fill="white"/>
</svg>
