<svg width="20" height="30" viewBox="0 0 20 30" fill="none" xmlns="http://www.w3.org/2000/svg">
<path d="M17.1857 6.25072C18.7286 6.25072 20 7.50787 20 9.10787V24.8222C20 26.4364 18.7286 27.6793 17.1857 27.6793C17.1857 28.5079 16.5143 29.1079 15.7143 29.1079C15 29.1079 14.2857 28.5079 14.2857 27.6793H5.71429C5.71429 28.5079 5 29.1079 4.28571 29.1079C3.48571 29.1079 2.81429 28.5079 2.81429 27.6793C1.27143 27.6793 0 26.4364 0 24.8222V9.10787C0 7.50787 1.27143 6.25072 2.81429 6.25072H5.71429V1.96501C5.71429 1.13644 6.37143 0.536438 7.14286 0.536438H12.8571C13.6286 0.536438 14.2857 1.13644 14.2857 1.96501V6.25072H17.1857ZM12.1429 6.25072V2.6793H7.85714V6.25072H12.1429ZM4.28571 10.5364V23.3936H6.42857V10.5364H4.28571ZM13.5714 10.5364V23.3936H15.7143V10.5364H13.5714ZM8.92857 10.5364V23.3936H11.0714V10.5364H8.92857Z" fill="#828282"/>
</svg>
