<svg width="25" height="26" viewBox="0 0 25 26" fill="none" xmlns="http://www.w3.org/2000/svg">
<path d="M9.0796 25.07L8.58209 21.0899C8.3126 20.9862 8.05887 20.8618 7.8209 20.7167C7.58209 20.5716 7.34867 20.4161 7.12065 20.2503L3.4204 21.805L0 15.8971L3.20274 13.4717C3.18201 13.3266 3.17164 13.1865 3.17164 13.0513V12.2118C3.17164 12.0774 3.18201 11.9377 3.20274 11.7926L0 9.36722L3.4204 3.45926L7.12065 5.01399C7.34867 4.84815 7.58707 4.69268 7.83582 4.54757C8.08458 4.40246 8.33333 4.27808 8.58209 4.17444L9.0796 0.194336H15.9204L16.4179 4.17444C16.6874 4.27808 16.9415 4.40246 17.1803 4.54757C17.4183 4.69268 17.6513 4.84815 17.8794 5.01399L21.5796 3.45926L25 9.36722L21.7973 11.7926C21.818 11.9377 21.8284 12.0774 21.8284 12.2118V13.0513C21.8284 13.1865 21.8076 13.3266 21.7662 13.4717L24.9689 15.8971L21.5485 21.805L17.8794 20.2503C17.6513 20.4161 17.4129 20.5716 17.1642 20.7167C16.9154 20.8618 16.6667 20.9862 16.4179 21.0899L15.9204 25.07H9.0796ZM12.5622 16.9854C13.7645 16.9854 14.7906 16.5604 15.6405 15.7105C16.4905 14.8606 16.9154 13.8345 16.9154 12.6321C16.9154 11.4298 16.4905 10.4037 15.6405 9.55379C14.7906 8.70387 13.7645 8.27891 12.5622 8.27891C11.3391 8.27891 10.3076 8.70387 9.46766 9.55379C8.62853 10.4037 8.20896 11.4298 8.20896 12.6321C8.20896 13.8345 8.62853 14.8606 9.46766 15.7105C10.3076 16.5604 11.3391 16.9854 12.5622 16.9854ZM12.5622 14.4978C12.0439 14.4978 11.6037 14.3162 11.2413 13.953C10.8781 13.5907 10.6965 13.1504 10.6965 12.6321C10.6965 12.1139 10.8781 11.6736 11.2413 11.3113C11.6037 10.9481 12.0439 10.7665 12.5622 10.7665C13.0804 10.7665 13.5211 10.9481 13.8843 11.3113C14.2467 11.6736 14.4279 12.1139 14.4279 12.6321C14.4279 13.1504 14.2467 13.5907 13.8843 13.953C13.5211 14.3162 13.0804 14.4978 12.5622 14.4978ZM11.2562 22.5824H13.7127L14.148 19.2864C14.7906 19.1205 15.3868 18.8768 15.9366 18.555C16.4855 18.2341 16.988 17.8457 17.444 17.3896L20.5224 18.6645L21.7351 16.5501L19.0609 14.5289C19.1646 14.2387 19.2372 13.9327 19.2786 13.611C19.3201 13.2901 19.3408 12.9638 19.3408 12.6321C19.3408 12.3005 19.3201 11.9738 19.2786 11.652C19.2372 11.3312 19.1646 11.0256 19.0609 10.7354L21.7351 8.71424L20.5224 6.59981L17.444 7.90578C16.988 7.429 16.4855 7.02974 15.9366 6.70802C15.3868 6.38712 14.7906 6.14376 14.148 5.97792L13.7438 2.6819H11.2873L10.852 5.97792C10.2094 6.14376 9.6136 6.38712 9.06468 6.70802C8.51493 7.02974 8.01202 7.41863 7.55597 7.87469L4.47761 6.59981L3.26493 8.71424L5.93905 10.7043C5.83541 11.0152 5.76285 11.3262 5.72139 11.6371C5.67993 11.9481 5.6592 12.2797 5.6592 12.6321C5.6592 12.9638 5.67993 13.2851 5.72139 13.5961C5.76285 13.907 5.83541 14.218 5.93905 14.5289L3.26493 16.5501L4.47761 18.6645L7.55597 17.3585C8.01202 17.8353 8.51493 18.2341 9.06468 18.555C9.6136 18.8768 10.2094 19.1205 10.852 19.2864L11.2562 22.5824Z" fill="#828282"/>
</svg>
