<svg width="28" height="21" viewBox="0 0 28 21" fill="none" xmlns="http://www.w3.org/2000/svg">
<path d="M18.6665 10.2698C17.4672 10.2698 16.3075 9.73432 15.3999 8.76249C14.5173 7.81458 13.9783 6.5505 13.8832 5.20418C13.7817 3.76802 14.2198 2.44736 15.1164 1.48486C16.0129 0.522368 17.2665 0.00320435 18.6665 0.00320435C20.0566 0.00320435 21.3137 0.531701 22.2073 1.49186C23.1097 2.46136 23.549 3.77968 23.4475 5.20359C23.3501 6.55167 22.8116 7.81516 21.9308 8.76191C21.0255 9.73432 19.8664 10.2698 18.6665 10.2698ZM26.3565 20.5364H10.977C10.7298 20.5378 10.4855 20.4823 10.263 20.3744C10.0405 20.2665 9.84577 20.109 9.69372 19.914C9.53243 19.7026 9.42105 19.4575 9.36791 19.197C9.31477 18.9364 9.32126 18.6673 9.38688 18.4096C9.87805 16.4374 11.0949 14.8017 12.9055 13.68C14.5126 12.6848 16.5583 12.1365 18.6665 12.1365C20.8161 12.1365 22.8081 12.6615 24.4246 13.656C26.2393 14.772 27.4579 16.417 27.9467 18.4131C28.0115 18.671 28.0173 18.9401 27.9636 19.2005C27.9098 19.4609 27.798 19.7058 27.6364 19.9169C27.4845 20.111 27.2902 20.2678 27.0683 20.3751C26.8465 20.4825 26.603 20.5377 26.3565 20.5364ZM7.64156 10.5031C5.58882 10.5031 3.784 8.59449 3.61658 6.24892C3.53375 5.04726 3.90825 3.93602 4.66658 3.1211C5.41674 2.31436 6.4749 1.86986 7.64156 1.86986C8.80822 1.86986 9.85821 2.31669 10.6125 3.12811C11.3766 3.94943 11.75 5.05834 11.6625 6.25009C11.495 8.59508 9.6908 10.5031 7.64156 10.5031ZM11.4717 12.3377C10.4456 11.8361 9.11388 11.5852 7.64214 11.5852C5.92365 11.5852 4.25475 12.0332 2.94225 12.8464C1.45418 13.7698 0.453181 15.1144 0.0489334 16.7378C-0.010225 16.9713 -0.0158203 17.2151 0.032566 17.4511C0.0809522 17.6871 0.182068 17.9091 0.328349 18.1004C0.467151 18.2786 0.644971 18.4226 0.848135 18.5213C1.0513 18.62 1.27439 18.6708 1.50026 18.6698H7.97522C8.08451 18.6698 8.19033 18.6314 8.27422 18.5613C8.35812 18.4913 8.41477 18.3941 8.43431 18.2865C8.44072 18.2498 8.44889 18.213 8.45822 18.1769C8.95289 16.19 10.112 14.5112 11.8246 13.2874C11.8876 13.242 11.9383 13.1816 11.972 13.1116C12.0058 13.0417 12.0215 12.9645 12.0179 12.8869C12.0142 12.8093 11.9913 12.7339 11.9511 12.6674C11.911 12.601 11.8548 12.5456 11.7879 12.5063C11.6963 12.4526 11.5913 12.3961 11.4717 12.3377Z" fill="#828282"/>
</svg>
