<svg width="28" height="27" viewBox="0 0 28 27" fill="none" xmlns="http://www.w3.org/2000/svg">
<path d="M10.1381 1.50513C10.4662 1.17709 10.9112 0.992798 11.3752 0.992798C11.8392 0.992798 12.2842 1.17709 12.6124 1.50513L13.7445 2.63554C13.9088 2.79983 14.0011 3.02266 14.0011 3.255C14.0011 3.48733 13.9088 3.71016 13.7445 3.87445C13.5802 4.03874 13.3574 4.13103 13.1251 4.13103C12.8927 4.13103 12.6699 4.03874 12.5056 3.87445L11.3752 2.74229L3.50083 10.6167V21.6285C3.50083 21.8606 3.59301 22.0831 3.75709 22.2472C3.92117 22.4113 4.14371 22.5035 4.37576 22.5035C4.60781 22.5035 4.83035 22.5957 4.99443 22.7597C5.15851 22.9238 5.25069 23.1464 5.25069 23.3784C5.25069 23.6105 5.15851 23.833 4.99443 23.9971C4.83035 24.1612 4.60781 24.2533 4.37576 24.2533C3.67962 24.2533 3.012 23.9768 2.51975 23.4846C2.02751 22.9923 1.75097 22.3247 1.75097 21.6285V12.3665L1.49549 12.6238C1.3312 12.788 1.10838 12.8803 0.876036 12.8803C0.643697 12.8803 0.420874 12.788 0.256585 12.6238C0.0922964 12.4595 3.46212e-09 12.2366 0 12.0043C-3.46212e-09 11.772 0.0922964 11.5491 0.256585 11.3849L10.1381 1.50513ZM15.3876 3.255C15.7158 2.92695 16.1608 2.74266 16.6248 2.74266C17.0888 2.74266 17.5338 2.92695 17.8619 3.255L20.9994 6.3925V4.12993C20.9994 3.89788 21.0916 3.67534 21.2557 3.51126C21.4198 3.34718 21.6423 3.255 21.8744 3.255H23.6242C23.8563 3.255 24.0788 3.34718 24.2429 3.51126C24.407 3.67534 24.4992 3.89788 24.4992 4.12993V9.89222L27.7434 13.1347C27.9077 13.299 28 13.5218 28 13.7542C28 13.9865 27.9077 14.2093 27.7434 14.3736C27.5791 14.5379 27.3563 14.6302 27.124 14.6302C26.8916 14.6302 26.6688 14.5379 26.5045 14.3736L26.249 14.1164V23.3784C26.249 24.0745 25.9725 24.7422 25.4803 25.2344C24.988 25.7267 24.3204 26.0032 23.6242 26.0032H9.62535C8.92921 26.0032 8.26158 25.7267 7.76934 25.2344C7.27709 24.7422 7.00055 24.0745 7.00055 23.3784V14.1164L6.74507 14.3736C6.66373 14.455 6.56715 14.5195 6.46087 14.5635C6.35458 14.6075 6.24066 14.6302 6.12562 14.6302C6.01058 14.6302 5.89666 14.6075 5.79038 14.5635C5.68409 14.5195 5.58752 14.455 5.50617 14.3736C5.42482 14.2923 5.3603 14.1957 5.31627 14.0894C5.27225 13.9831 5.24959 13.8692 5.24959 13.7542C5.24959 13.6391 5.27225 13.5252 5.31627 13.4189C5.3603 13.3126 5.42482 13.2161 5.50617 13.1347L15.3876 3.255ZM16.6248 4.49215L8.75042 12.3665V23.3784C8.75042 23.6105 8.8426 23.833 9.00668 23.9971C9.17076 24.1612 9.3933 24.2533 9.62535 24.2533H23.6242C23.8563 24.2533 24.0788 24.1612 24.2429 23.9971C24.407 23.833 24.4992 23.6105 24.4992 23.3784V12.3665L16.6248 4.49215Z" fill="#828282"/>
</svg>
